<svg xmlns="http://www.w3.org/2000/svg" width="512" height="512" viewBox="0 0 512 512">
<title>Normal drive mode</title>
<path fill="#FCD910" fill-rule="evenodd" d="M224.505,105.973 L235.494,105.323 L246.669,105.134 L269.020,105.129 L280.196,105.472 L336.073,108.947 L352.837,110.561 L354.699,110.566 L356.562,109.886 L358.424,108.599 L362.149,107.915 L369.600,109.012 L373.325,110.582 L377.050,112.699 L382.638,116.617 L385.056,119.011 L388.523,122.737 L398.031,137.637 L407.243,154.400 L415.765,173.026 L418.693,178.614 L425.270,195.377 L427.917,200.965 L430.339,208.415 L434.790,219.120 L436.653,218.854 L437.009,217.728 L436.382,199.102 L436.952,195.377 L437.619,193.515 L438.515,192.613 L440.378,192.178 L445.966,191.997 L472.042,191.870 L473.904,192.167 L475.767,193.149 L478.066,195.377 L479.275,197.240 L479.921,199.102 L480.000,217.728 L478.547,219.591 L475.767,222.108 L473.904,222.546 L464.591,222.723 L438.515,222.526 L437.067,223.316 L437.689,225.179 L439.074,227.041 L441.583,232.629 L444.103,235.712 L446.837,238.217 L451.553,241.522 L457.141,246.416 L462.200,251.255 L465.535,254.980 L469.241,260.568 L469.905,262.430 L471.083,264.293 L472.921,269.880 L474.309,279.193 L474.603,288.506 L474.366,318.308 L474.641,377.910 L474.374,387.223 L472.999,392.811 L471.149,396.536 L466.454,401.544 L464.591,402.999 L460.866,404.890 L453.416,406.622 L397.538,406.623 L391.951,404.284 L388.226,401.235 L385.425,398.399 L369.810,379.773 L362.149,371.813 L350.974,371.414 L172.166,371.407 L149.815,371.723 L147.953,373.323 L132.305,390.948 L128.006,396.536 L123.011,402.124 L120.014,404.322 L114.426,406.413 L79.037,406.871 L56.686,406.715 L54.824,406.504 L49.236,404.405 L45.745,402.124 L41.767,398.399 L39.237,394.673 L37.500,390.948 L36.898,389.086 L36.460,385.361 L36.730,282.919 L37.861,273.606 L40.745,264.293 L45.018,256.842 L49.236,251.856 L55.548,245.667 L68.849,234.491 L70.364,232.629 L73.825,227.041 L75.537,223.316 L75.312,222.964 L73.449,222.349 L39.923,222.567 L38.060,222.472 L36.198,221.820 L33.283,219.591 L32.000,217.728 L32.202,200.965 L32.303,199.102 L33.111,197.240 L34.430,195.377 L36.198,193.695 L38.060,192.562 L54.824,192.047 L73.449,192.159 L75.212,193.515 L76.049,195.377 L76.289,217.728 L77.175,219.659 L79.580,215.866 L91.480,187.927 L100.988,167.439 L111.574,146.950 L122.665,128.324 L126.875,122.737 L133.112,117.149 L136.777,114.481 L144.227,110.508 L147.953,109.176 L155.403,107.353 L160.991,107.298 L164.716,109.958 L166.578,110.422 L177.754,108.994 L200.105,107.219 L224.505,105.973 Z M216.868,126.384 L174.029,129.596 L159.128,131.197 L155.403,131.186 L149.815,132.554 L146.090,133.084 L144.227,133.853 L142.365,135.142 L139.760,137.637 L132.560,148.813 L126.445,159.988 L115.393,182.339 L108.857,197.240 L102.676,210.278 L99.782,217.728 L96.124,225.179 L97.272,227.041 L99.526,228.266 L120.014,243.463 L134.915,255.328 L146.090,263.640 L158.403,273.606 L157.320,275.468 L149.815,283.921 L144.227,289.958 L142.365,291.520 L140.502,291.676 L133.052,291.030 L127.464,290.099 L114.426,288.817 L110.701,288.057 L101.388,287.322 L84.625,285.350 L75.312,283.776 L72.216,281.056 L71.146,279.193 L69.200,271.743 L68.064,264.293 L65.999,263.685 L65.378,264.293 L62.210,268.018 L59.623,271.743 L56.609,279.193 L56.485,281.056 L56.236,290.369 L56.274,379.773 L56.324,381.635 L58.412,385.361 L60.411,386.539 L62.274,386.706 L77.175,386.863 L106.976,386.672 L108.838,386.316 L110.040,385.361 L121.117,372.322 L134.718,357.422 L135.922,355.559 L135.458,353.697 L134.130,351.834 L131.618,346.246 L128.478,340.659 L126.219,335.071 L125.846,333.208 L126.270,331.346 L128.333,327.620 L141.370,312.720 L164.716,290.095 L170.304,285.880 L174.029,284.240 L175.891,283.964 L187.067,283.276 L194.517,282.352 L213.143,281.522 L228.044,280.406 L250.395,279.949 L280.196,280.344 L323.035,282.497 L337.936,284.144 L343.524,285.970 L350.974,293.425 L358.424,300.174 L373.929,316.445 L384.800,329.483 L385.988,333.208 L385.563,335.071 L382.762,342.521 L379.864,348.109 L379.285,349.971 L376.161,355.559 L376.493,357.422 L384.919,366.735 L397.161,381.635 L401.264,386.083 L403.126,386.575 L408.714,386.826 L449.691,386.726 L451.553,386.330 L452.814,385.361 L454.335,383.498 L454.849,381.635 L454.894,379.773 L454.806,281.056 L454.317,277.331 L451.862,271.743 L447.828,265.745 L445.966,264.091 L445.746,264.293 L445.112,266.155 L444.680,269.880 L442.885,275.468 L441.065,279.193 L438.515,281.887 L432.927,283.744 L425.477,285.177 L414.302,286.346 L388.226,290.043 L384.500,290.899 L375.187,291.723 L371.462,291.928 L369.600,291.088 L360.817,281.056 L353.442,273.606 L355.212,271.743 L375.187,255.825 L410.577,229.338 L415.508,225.179 L415.527,223.316 L411.123,212.140 L410.103,210.278 L408.932,206.553 L406.365,200.965 L405.873,199.102 L401.698,189.790 L400.541,187.927 L394.028,173.026 L379.549,145.088 L376.090,139.500 L373.325,136.096 L371.462,134.480 L369.600,133.440 L360.287,131.978 L352.837,131.146 L323.035,128.963 L311.860,127.647 L289.509,126.043 L274.608,125.385 L242.944,125.382 L216.868,126.384 Z M203.830,299.640 L179.616,300.572 L177.754,301.371 L145.390,331.346 L144.046,333.208 L144.333,335.071 L152.720,349.971 L153.995,351.834 L155.403,352.880 L356.562,352.502 L358.424,352.318 L360.287,349.802 L364.814,340.659 L368.182,335.071 L368.649,333.208 L367.556,331.346 L340.442,305.270 L336.073,301.454 L334.211,300.799 L295.097,299.537 L272.746,299.178 L231.769,299.123 L203.830,299.640 Z"/>
</svg>
